<svg width="36" height="44" viewBox="0 0 36 44" fill="none" xmlns="http://www.w3.org/2000/svg">
<path d="M30.0661 23.3313C30.1282 29.9772 35.9357 32.1888 36 32.217C35.9509 32.373 35.0721 35.3688 32.9404 38.4632C31.0976 41.1385 29.1851 43.8039 26.1722 43.8591C23.2119 43.9133 22.2599 42.1154 18.8753 42.1154C15.4918 42.1154 14.4342 43.8039 11.6318 43.9133C8.72368 44.0226 6.50916 41.0204 4.65109 38.3549C0.854338 32.9026 -2.04716 22.9479 1.84882 16.2284C3.78426 12.8914 7.24304 10.7783 10.9972 10.7241C13.853 10.67 16.5484 12.6325 18.2941 12.6325C20.0388 12.6325 23.3143 10.2725 26.7578 10.6191C28.1993 10.6787 32.2458 11.1975 34.8442 14.9753C34.6348 15.1042 30.0159 17.7751 30.0661 23.3313V23.3313ZM24.5024 7.01188C26.0463 5.15552 27.0855 2.57129 26.802 0C24.5765 0.0888451 21.8854 1.47306 20.2891 3.3284C18.8585 4.9714 17.6057 7.60111 17.9437 10.1215C20.4243 10.3121 22.9584 8.86943 24.5024 7.01189" fill="#F5F5F7"/>
</svg>
