<svg width="24" height="24" viewBox="0 0 24 24" fill="none" xmlns="http://www.w3.org/2000/svg">
<path d="M17.0865 11.6254C17.1152 14.652 19.8039 15.6592 19.8337 15.672C19.8109 15.7431 19.4041 17.1074 18.4172 18.5166C17.564 19.735 16.6786 20.9489 15.2838 20.974C13.9132 20.9987 13.4725 20.1799 11.9056 20.1799C10.3391 20.1799 9.84947 20.9489 8.55209 20.9987C7.20573 21.0485 6.18049 19.6812 5.32027 18.4673C3.56252 15.9842 2.21923 11.4508 4.02293 8.39061C4.91897 6.87092 6.52025 5.90859 8.25831 5.88391C9.5804 5.85927 10.8283 6.753 11.6365 6.753C12.4442 6.753 13.9607 5.67821 15.5549 5.83606C16.2222 5.8632 18.0956 6.09947 19.2985 7.81993C19.2016 7.87864 17.0632 9.095 17.0865 11.6254V11.6254ZM14.5107 4.1933C15.2255 3.34789 15.7066 2.171 15.5753 1C14.545 1.04046 13.2991 1.67085 12.5601 2.5158C11.8978 3.26404 11.3178 4.46164 11.4743 5.60946C12.6227 5.69628 13.7959 5.03925 14.5107 4.1933" fill="#F5F5F7"/>
</svg>
