<svg width="24" height="24" viewBox="0 0 24 24" fill="none" xmlns="http://www.w3.org/2000/svg">
<path fill-rule="evenodd" clip-rule="evenodd" d="M5.36523 11.1794C5.36523 7.96833 7.96833 5.36523 11.1794 5.36523C14.3905 5.36523 16.9936 7.96833 16.9936 11.1794C16.9936 12.7481 16.3723 14.1718 15.3624 15.2176C15.3356 15.238 15.3098 15.2605 15.2853 15.2849C15.2609 15.3094 15.2384 15.3352 15.218 15.362C14.1721 16.3722 12.7483 16.9936 11.1794 16.9936C7.96833 16.9936 5.36523 14.3905 5.36523 11.1794ZM15.7941 16.8544C14.5354 17.8792 12.9291 18.4936 11.1794 18.4936C7.1399 18.4936 3.86523 15.2189 3.86523 11.1794C3.86523 7.1399 7.1399 3.86523 11.1794 3.86523C15.2189 3.86523 18.4936 7.1399 18.4936 11.1794C18.4936 12.9289 17.8793 14.535 16.8547 15.7937L19.9153 18.8542C20.2082 19.1471 20.2082 19.622 19.9153 19.9149C19.6224 20.2078 19.1475 20.2078 18.8546 19.9149L15.7941 16.8544Z" fill="#D6D6D6"/>
</svg>
